<?xml version="1.0" encoding="UTF-8" standalone="no"?>
<!DOCTYPE svg PUBLIC "-//W3C//DTD SVG 1.1//EN"
 "http://www.w3.org/Graphics/SVG/1.1/DTD/svg11.dtd">
<!-- Generated by graphviz version 2.49.3 (20211027.1534)
 -->
<!-- Pages: 1 -->
<svg width="1144pt" height="404pt"
 viewBox="0.00 0.00 1144.45 404.00" xmlns="http://www.w3.org/2000/svg" xmlns:xlink="http://www.w3.org/1999/xlink">
<g id="graph0" class="graph" transform="scale(1 1) rotate(0) translate(4 400)">
<polygon fill="white" stroke="transparent" points="-4,4 -4,-400 1140.45,-400 1140.45,4 -4,4"/>
<!-- [root] aws_dynamodb_table.dynamo&#45;terraform&#45;state&#45;lock (expand) -->
<g id="node1" class="node">
<title>[root] aws_dynamodb_table.dynamo&#45;terraform&#45;state&#45;lock (expand)</title>
<polygon fill="none" stroke="black" points="983.28,-180 621.28,-180 621.28,-144 983.28,-144 983.28,-180"/>
<text text-anchor="middle" x="802.28" y="-158.3" font-family="Times,serif" font-size="14.00">aws_dynamodb_table.dynamo&#45;terraform&#45;state&#45;lock</text>
</g>
<!-- [root] provider[&quot;registry.terraform.io/hashicorp/aws&quot;] -->
<g id="node5" class="node">
<title>[root] provider[&quot;registry.terraform.io/hashicorp/aws&quot;]</title>
<polygon fill="none" stroke="black" points="797.28,-36 457.94,-18 797.28,0 1136.62,-18 797.28,-36"/>
<text text-anchor="middle" x="797.28" y="-14.3" font-family="Times,serif" font-size="14.00">provider[&quot;registry.terraform.io/hashicorp/aws&quot;]</text>
</g>
<!-- [root] aws_dynamodb_table.dynamo&#45;terraform&#45;state&#45;lock (expand)&#45;&gt;[root] provider[&quot;registry.terraform.io/hashicorp/aws&quot;] -->
<g id="edge1" class="edge">
<title>[root] aws_dynamodb_table.dynamo&#45;terraform&#45;state&#45;lock (expand)&#45;&gt;[root] provider[&quot;registry.terraform.io/hashicorp/aws&quot;]</title>
<path fill="none" stroke="black" d="M801.68,-143.87C800.82,-119.67 799.26,-75.21 798.24,-46.39"/>
<polygon fill="black" stroke="black" points="801.73,-46.06 797.88,-36.19 794.74,-46.31 801.73,-46.06"/>
</g>
<!-- [root] module.servers.aws_instance.web (expand) -->
<g id="node2" class="node">
<title>[root] module.servers.aws_instance.web (expand)</title>
<polygon fill="none" stroke="black" points="497.78,-180 248.78,-180 248.78,-144 497.78,-144 497.78,-180"/>
<text text-anchor="middle" x="373.28" y="-158.3" font-family="Times,serif" font-size="14.00">module.servers.aws_instance.web</text>
</g>
<!-- [root] module.servers.data.aws_ami.ubuntu (expand) -->
<g id="node3" class="node">
<title>[root] module.servers.data.aws_ami.ubuntu (expand)</title>
<polygon fill="none" stroke="black" points="774.28,-108 502.28,-108 502.28,-72 774.28,-72 774.28,-108"/>
<text text-anchor="middle" x="638.28" y="-86.3" font-family="Times,serif" font-size="14.00">module.servers.data.aws_ami.ubuntu</text>
</g>
<!-- [root] module.servers.aws_instance.web (expand)&#45;&gt;[root] module.servers.data.aws_ami.ubuntu (expand) -->
<g id="edge3" class="edge">
<title>[root] module.servers.aws_instance.web (expand)&#45;&gt;[root] module.servers.data.aws_ami.ubuntu (expand)</title>
<path fill="none" stroke="black" d="M437.77,-143.97C475.76,-133.93 523.99,-121.19 563.62,-110.72"/>
<polygon fill="black" stroke="black" points="564.73,-114.05 573.5,-108.11 562.94,-107.28 564.73,-114.05"/>
</g>
<!-- [root] module.servers.var.servers (expand) -->
<g id="node8" class="node">
<title>[root] module.servers.var.servers (expand)</title>
<ellipse fill="none" stroke="black" cx="268.28" cy="-90" rx="215.56" ry="18"/>
<text text-anchor="middle" x="268.28" y="-86.3" font-family="Times,serif" font-size="14.00">[root] module.servers.var.servers (expand)</text>
</g>
<!-- [root] module.servers.aws_instance.web (expand)&#45;&gt;[root] module.servers.var.servers (expand) -->
<g id="edge4" class="edge">
<title>[root] module.servers.aws_instance.web (expand)&#45;&gt;[root] module.servers.var.servers (expand)</title>
<path fill="none" stroke="black" d="M347.59,-143.88C333.89,-134.74 316.86,-123.38 302.09,-113.54"/>
<polygon fill="black" stroke="black" points="303.96,-110.58 293.7,-107.95 300.08,-116.41 303.96,-110.58"/>
</g>
<!-- [root] module.servers.data.aws_ami.ubuntu (expand)&#45;&gt;[root] provider[&quot;registry.terraform.io/hashicorp/aws&quot;] -->
<g id="edge6" class="edge">
<title>[root] module.servers.data.aws_ami.ubuntu (expand)&#45;&gt;[root] provider[&quot;registry.terraform.io/hashicorp/aws&quot;]</title>
<path fill="none" stroke="black" d="M677.17,-71.88C700.23,-61.73 729.5,-48.84 753.38,-38.33"/>
<polygon fill="black" stroke="black" points="754.83,-41.51 762.57,-34.28 752.01,-35.11 754.83,-41.51"/>
</g>
<!-- [root] module.servers (expand) -->
<g id="node9" class="node">
<title>[root] module.servers (expand)</title>
<ellipse fill="none" stroke="black" cx="278.28" cy="-18" rx="157.07" ry="18"/>
<text text-anchor="middle" x="278.28" y="-14.3" font-family="Times,serif" font-size="14.00">[root] module.servers (expand)</text>
</g>
<!-- [root] module.servers.data.aws_ami.ubuntu (expand)&#45;&gt;[root] module.servers (expand) -->
<g id="edge5" class="edge">
<title>[root] module.servers.data.aws_ami.ubuntu (expand)&#45;&gt;[root] module.servers (expand)</title>
<path fill="none" stroke="black" d="M550.67,-71.97C494.03,-60.95 420.64,-46.68 364.31,-35.73"/>
<polygon fill="black" stroke="black" points="364.84,-32.27 354.35,-33.79 363.5,-39.14 364.84,-32.27"/>
</g>
<!-- [root] output.DNSName -->
<g id="node4" class="node">
<title>[root] output.DNSName</title>
<polygon fill="none" stroke="black" points="290.28,-324 174.28,-324 174.28,-288 296.28,-288 296.28,-318 290.28,-324"/>
<polyline fill="none" stroke="black" points="290.28,-324 290.28,-318 "/>
<polyline fill="none" stroke="black" points="296.28,-318 290.28,-318 "/>
<text text-anchor="middle" x="235.28" y="-302.3" font-family="Times,serif" font-size="14.00">output.DNSName</text>
</g>
<!-- [root] module.servers.output.dns_name (expand) -->
<g id="node7" class="node">
<title>[root] module.servers.output.dns_name (expand)</title>
<ellipse fill="none" stroke="black" cx="235.28" cy="-234" rx="235.06" ry="18"/>
<text text-anchor="middle" x="235.28" y="-230.3" font-family="Times,serif" font-size="14.00">[root] module.servers.output.dns_name (expand)</text>
</g>
<!-- [root] output.DNSName&#45;&gt;[root] module.servers.output.dns_name (expand) -->
<g id="edge9" class="edge">
<title>[root] output.DNSName&#45;&gt;[root] module.servers.output.dns_name (expand)</title>
<path fill="none" stroke="black" d="M235.28,-287.7C235.28,-279.98 235.28,-270.71 235.28,-262.11"/>
<polygon fill="black" stroke="black" points="238.78,-262.1 235.28,-252.1 231.78,-262.1 238.78,-262.1"/>
</g>
<!-- [root] module.servers (close) -->
<g id="node6" class="node">
<title>[root] module.servers (close)</title>
<ellipse fill="none" stroke="black" cx="466.28" cy="-306" rx="152.17" ry="18"/>
<text text-anchor="middle" x="466.28" y="-302.3" font-family="Times,serif" font-size="14.00">[root] module.servers (close)</text>
</g>
<!-- [root] module.servers (close)&#45;&gt;[root] module.servers.output.dns_name (expand) -->
<g id="edge2" class="edge">
<title>[root] module.servers (close)&#45;&gt;[root] module.servers.output.dns_name (expand)</title>
<path fill="none" stroke="black" d="M413.57,-289.03C379.74,-278.77 335.57,-265.39 299.66,-254.51"/>
<polygon fill="black" stroke="black" points="300.35,-251.06 289.77,-251.51 298.32,-257.76 300.35,-251.06"/>
</g>
<!-- [root] module.servers.output.dns_name (expand)&#45;&gt;[root] module.servers.aws_instance.web (expand) -->
<g id="edge7" class="edge">
<title>[root] module.servers.output.dns_name (expand)&#45;&gt;[root] module.servers.aws_instance.web (expand)</title>
<path fill="none" stroke="black" d="M268.69,-216.05C287.28,-206.62 310.62,-194.78 330.53,-184.68"/>
<polygon fill="black" stroke="black" points="332.37,-187.68 339.7,-180.03 329.2,-181.43 332.37,-187.68"/>
</g>
<!-- [root] module.servers.var.servers (expand)&#45;&gt;[root] module.servers (expand) -->
<g id="edge8" class="edge">
<title>[root] module.servers.var.servers (expand)&#45;&gt;[root] module.servers (expand)</title>
<path fill="none" stroke="black" d="M270.75,-71.7C271.85,-63.98 273.18,-54.71 274.41,-46.11"/>
<polygon fill="black" stroke="black" points="277.89,-46.5 275.84,-36.1 270.96,-45.51 277.89,-46.5"/>
</g>
<!-- [root] provider[&quot;registry.terraform.io/hashicorp/aws&quot;] (close) -->
<g id="node10" class="node">
<title>[root] provider[&quot;registry.terraform.io/hashicorp/aws&quot;] (close)</title>
<ellipse fill="none" stroke="black" cx="802.28" cy="-234" rx="313.04" ry="18"/>
<text text-anchor="middle" x="802.28" y="-230.3" font-family="Times,serif" font-size="14.00">[root] provider[&quot;registry.terraform.io/hashicorp/aws&quot;] (close)</text>
</g>
<!-- [root] provider[&quot;registry.terraform.io/hashicorp/aws&quot;] (close)&#45;&gt;[root] aws_dynamodb_table.dynamo&#45;terraform&#45;state&#45;lock (expand) -->
<g id="edge10" class="edge">
<title>[root] provider[&quot;registry.terraform.io/hashicorp/aws&quot;] (close)&#45;&gt;[root] aws_dynamodb_table.dynamo&#45;terraform&#45;state&#45;lock (expand)</title>
<path fill="none" stroke="black" d="M802.28,-215.7C802.28,-207.98 802.28,-198.71 802.28,-190.11"/>
<polygon fill="black" stroke="black" points="805.78,-190.1 802.28,-180.1 798.78,-190.1 805.78,-190.1"/>
</g>
<!-- [root] provider[&quot;registry.terraform.io/hashicorp/aws&quot;] (close)&#45;&gt;[root] module.servers.aws_instance.web (expand) -->
<g id="edge11" class="edge">
<title>[root] provider[&quot;registry.terraform.io/hashicorp/aws&quot;] (close)&#45;&gt;[root] module.servers.aws_instance.web (expand)</title>
<path fill="none" stroke="black" d="M703.59,-216.9C639.23,-206.39 554.99,-192.65 487.7,-181.67"/>
<polygon fill="black" stroke="black" points="487.91,-178.16 477.48,-180 486.78,-185.07 487.91,-178.16"/>
</g>
<!-- [root] root -->
<g id="node11" class="node">
<title>[root] root</title>
<ellipse fill="none" stroke="black" cx="466.28" cy="-378" rx="64.19" ry="18"/>
<text text-anchor="middle" x="466.28" y="-374.3" font-family="Times,serif" font-size="14.00">[root] root</text>
</g>
<!-- [root] root&#45;&gt;[root] output.DNSName -->
<g id="edge13" class="edge">
<title>[root] root&#45;&gt;[root] output.DNSName</title>
<path fill="none" stroke="black" d="M424.18,-364.24C389.8,-353.82 340.59,-338.91 301.03,-326.92"/>
<polygon fill="black" stroke="black" points="302.03,-323.57 291.45,-324.02 300,-330.27 302.03,-323.57"/>
</g>
<!-- [root] root&#45;&gt;[root] module.servers (close) -->
<g id="edge12" class="edge">
<title>[root] root&#45;&gt;[root] module.servers (close)</title>
<path fill="none" stroke="black" d="M466.28,-359.7C466.28,-351.98 466.28,-342.71 466.28,-334.11"/>
<polygon fill="black" stroke="black" points="469.78,-334.1 466.28,-324.1 462.78,-334.1 469.78,-334.1"/>
</g>
<!-- [root] root&#45;&gt;[root] provider[&quot;registry.terraform.io/hashicorp/aws&quot;] (close) -->
<g id="edge14" class="edge">
<title>[root] root&#45;&gt;[root] provider[&quot;registry.terraform.io/hashicorp/aws&quot;] (close)</title>
<path fill="none" stroke="black" d="M509.64,-364.69C542.42,-354.91 588.29,-340.22 627.28,-324 675.38,-303.99 728.42,-276.15 763.36,-256.96"/>
<polygon fill="black" stroke="black" points="765.22,-259.93 772.28,-252.03 761.83,-253.81 765.22,-259.93"/>
</g>
</g>
</svg>
